<svg xmlns="http://www.w3.org/2000/svg" width="256" height="256" fill="none"><circle cx="160" cy="128" r="96" fill="#fff"/><rect width="160" height="192" y="32" fill="#fff" rx="0" ry="0"/><path fill="#000" d="M160 213.3a82 82 0 0 1-60.5-24.8A82.4 82.4 0 0 1 74.7 128c0-23.6 8.2-43.8 24.8-60.4a82.1 82.1 0 0 1 60.5-25c23.6 0 43.8 8.4 60.4 25a82.3 82.3 0 0 1 25 60.4c0 23.8-8.4 44-25 60.5a82.5 82.5 0 0 1-60.4 24.8Zm0-21.3c17.8 0 32.9-6.2 45.3-18.7A61.7 61.7 0 0 0 224 128c0-17.8-6.2-32.9-18.7-45.3A61.7 61.7 0 0 0 160 64a61.7 61.7 0 0 0-45.3 18.7A61.7 61.7 0 0 0 96 128c0 17.8 6.2 32.9 18.7 45.3A61.7 61.7 0 0 0 160 192Zm24.3-24.3 15.2-15.2-28.8-28.8V85.3h-21.4v47.2l35 35.2ZM21.3 96V74.7H64V96H21.3Zm-10.6 42.7v-21.4H64v21.4H10.7Zm10.6 42.6V160H64v21.3H21.3ZM160 128Z"/></svg>
