<svg xmlns="http://www.w3.org/2000/svg" width="256" height="256" fill="none"><rect width="256" height="256" fill="#fff" rx="0" ry="0"/><path fill="#000" d="M155.2 200.53c-20.25 0-37.4-7.02-51.45-21.08-14.06-14.05-21.08-31.2-21.08-51.45 0-20.1 7.02-37.21 21.08-51.34 14.05-14.13 31.2-21.2 51.45-21.2 20.1 0 37.21 7.07 51.34 21.2 14.13 14.13 21.2 31.24 21.2 51.34 0 20.25-7.07 37.4-21.2 51.45-14.13 14.06-31.24 21.08-51.34 21.08Zm0-18.13c15.11 0 27.96-5.29 38.53-15.87 10.58-10.57 15.87-23.42 15.87-38.53s-5.29-27.96-15.87-38.53C183.16 78.89 170.31 73.6 155.2 73.6s-27.96 5.29-38.53 15.87c-10.58 10.57-15.87 23.42-15.87 38.53s5.29 27.96 15.87 38.53c10.57 10.58 23.42 15.87 38.53 15.87Zm20.63-20.63 12.92-12.92-24.48-24.48V91.73h-18.14v40.12l29.7 29.92ZM37.33 100.8V82.67H73.6v18.13H37.33Zm-9.06 36.27v-18.14H73.6v18.14H28.27Zm9.06 36.26V155.2H73.6v18.13H37.33ZM155.2 128Z"/></svg>
